<?xml version="1.0" standalone="no"?>
<!DOCTYPE svg PUBLIC "-//W3C//DTD SVG 20010904//EN"
 "http://www.w3.org/TR/2001/REC-SVG-20010904/DTD/svg10.dtd">
<svg version="1.0" xmlns="http://www.w3.org/2000/svg"
 width="300.000000pt" height="300.000000pt" viewBox="0 0 300.000000 300.000000"
 preserveAspectRatio="xMidYMid meet">
<metadata>
Created by potrace 1.10, written by Peter Selinger 2001-2011
</metadata>
<g transform="translate(0.000000,300.000000) scale(0.100000,-0.100000)"
fill="#000000" stroke="none">
<path d="M1395 2769 c-305 -173 -589 -281 -805 -305 -36 -4 -72 -8 -80 -10 -8
-1 -27 -3 -42 -3 -18 -1 -33 -10 -44 -26 -14 -22 -16 -81 -17 -542 0 -552 3
-619 34 -738 38 -146 126 -340 190 -421 16 -20 29 -40 29 -45 0 -22 215 -221
299 -277 177 -119 433 -225 541 -226 99 0 366 110 528 218 244 162 421 396
510 676 56 175 57 183 58 779 1 649 11 597 -112 606 -39 3 -82 8 -95 10 -13 3
-40 8 -59 11 -172 30 -503 164 -716 290 -107 63 -113 63 -219 3z m192 -19
c300 -178 611 -292 876 -321 l107 -12 0 -526 c0 -588 -5 -648 -64 -826 -118
-351 -354 -607 -711 -768 -103 -46 -258 -97 -297 -97 -41 0 -212 58 -322 109
-134 62 -279 163 -382 265 -136 136 -226 281 -292 468 -65 184 -65 178 -69
804 l-4 572 73 7 c166 15 339 58 510 126 115 46 326 150 418 208 36 22 66 40
68 41 2 0 42 -23 89 -50z"/>
<path d="M1451 2645 c-57 -40 -280 -150 -404 -200 -145 -57 -316 -101 -431
-111 l-86 -7 0 -131 c-1 -86 -6 -145 -15 -170 -11 -31 -11 -44 -2 -60 8 -15
14 -129 18 -376 6 -346 6 -357 33 -449 111 -391 391 -670 814 -811 l120 -40
106 35 c423 138 700 403 819 782 43 137 48 201 50 724 l2 497 -86 6 c-216 16
-530 130 -807 293 -41 24 -79 43 -85 43 -7 -1 -27 -12 -46 -25z m119 -40 c19
-10 62 -33 95 -51 32 -17 61 -36 62 -41 2 -5 -8 -15 -22 -23 -23 -12 -27 -11
-46 8 -23 26 -103 31 -134 8 -16 -12 -21 -11 -35 7 -14 17 -27 20 -85 18 -48
-1 -75 -7 -87 -18 -14 -12 -21 -14 -30 -5 -8 8 -2 15 23 26 19 9 70 38 114 65
63 38 83 46 95 37 8 -6 31 -20 50 -31z m-90 -135 c0 -23 -4 -30 -20 -30 -11 0
-20 5 -20 11 0 6 -10 9 -22 7 -28 -4 -27 -22 2 -26 26 -4 26 -32 0 -32 -11 0
-20 -7 -20 -15 0 -8 9 -15 20 -15 11 0 20 5 20 10 0 6 8 10 19 10 12 0 20 -9
24 -27 3 -16 5 -29 4 -29 -1 -1 -37 -4 -79 -8 -74 -6 -78 -6 -78 14 0 11 5 20
10 20 17 0 12 87 -5 94 -8 3 -15 12 -15 20 0 16 27 22 108 25 51 1 52 1 52
-29z m168 2 c29 -38 2 -71 -32 -37 -25 26 -43 18 -49 -22 -8 -45 5 -63 33 -45
29 18 50 15 50 -8 0 -24 -28 -40 -73 -40 -49 0 -71 36 -62 99 4 28 14 52 26
61 25 20 89 15 107 -8z m-372 -44 c0 -32 6 -55 16 -62 32 -24 28 -43 -13 -55
-22 -7 -44 -9 -49 -6 -14 8 -13 32 2 37 7 3 9 14 3 34 l-8 29 -9 -32 c-10 -39
-14 -40 -45 -11 -23 21 -29 15 -17 -16 3 -9 12 -16 19 -16 15 0 29 -30 18 -40
-4 -4 -25 -11 -46 -14 -29 -6 -39 -4 -44 10 -3 9 -1 19 6 23 14 9 -5 72 -26
84 -7 4 -13 16 -13 26 0 29 68 36 96 10 l21 -20 6 29 c4 22 14 31 39 39 18 5
35 8 38 6 3 -3 5 -27 6 -55z m514 25 c2 -2 -3 -18 -12 -34 -15 -25 -15 -31 -3
-35 18 -7 37 4 30 17 -4 5 -4 18 0 28 5 17 10 18 38 9 46 -15 51 -23 29 -44
-25 -25 -46 -85 -32 -94 11 -7 3 -40 -10 -40 -17 0 -70 23 -70 30 0 5 7 15 15
24 20 19 19 32 -2 40 -21 8 -31 -8 -25 -41 5 -24 3 -25 -29 -18 -57 12 -65 19
-42 42 27 27 42 73 35 108 -5 27 -4 28 34 20 21 -4 41 -9 44 -12z m-754 -51
c19 -12 42 -66 38 -88 -5 -28 32 -74 58 -74 11 0 34 6 51 14 47 20 132 35 212
37 40 1 80 7 93 15 19 13 25 12 47 -2 15 -10 45 -16 76 -16 30 1 61 -5 73 -14
11 -8 31 -14 43 -14 34 0 244 -97 281 -130 9 -8 35 -28 57 -44 56 -41 173
-163 181 -189 3 -12 20 -37 37 -54 35 -38 71 -42 101 -14 12 11 30 21 41 23
20 3 20 -3 22 -267 2 -293 -4 -353 -53 -493 -14 -42 -38 -102 -52 -132 -24
-51 -117 -199 -131 -210 -4 -3 -20 -22 -36 -43 -37 -50 -208 -193 -246 -206
-26 -9 -29 -8 -29 10 0 27 -36 60 -57 52 -10 -4 -21 -11 -24 -16 -7 -10 -77
-13 -86 -3 -4 3 -1 22 5 43 7 23 8 42 2 54 -10 19 -88 52 -111 48 -8 -2 -24 0
-35 4 -15 5 -34 1 -57 -13 -23 -14 -38 -17 -42 -10 -3 6 -11 8 -16 5 -19 -12
-90 -7 -114 9 -13 9 -31 16 -40 16 -21 0 -19 10 10 44 21 25 25 39 25 95 -1
84 -23 116 -78 114 -56 -2 -60 -2 -162 1 -52 2 -103 -1 -114 -6 -12 -7 -22 -6
-29 1 -19 19 -62 12 -86 -13 -31 -32 -43 -174 -16 -196 21 -17 201 -23 226 -7
13 8 25 7 44 -1 22 -10 32 -10 49 1 18 12 26 11 64 -8 41 -21 42 -22 23 -39
-10 -9 -22 -33 -26 -53 -5 -29 -2 -40 17 -61 23 -24 23 -25 1 -13 -12 6 -44
11 -71 11 -52 0 -73 -14 -86 -57 -10 -32 -28 -29 -88 14 -62 44 -56 39 -143
123 -136 131 -231 285 -288 465 -37 119 -46 223 -46 507 l1 258 52 -6 c46 -6
55 -3 84 21 18 15 32 32 32 39 0 24 128 140 235 214 81 56 91 81 51 130 -15
16 -26 34 -26 40 0 5 -7 15 -15 22 -23 19 -18 36 18 54 37 18 38 18 53 8z
m965 -34 c44 -25 44 -25 24 -92 -8 -27 -12 -59 -9 -71 8 -33 -10 -38 -52 -13
l-37 22 24 18 c19 16 20 21 8 29 -20 12 -29 11 -29 -3 -1 -33 -16 -40 -49 -24
-27 14 -30 19 -21 37 6 11 15 17 19 15 10 -6 65 50 67 67 4 45 3 45 55 15z
m114 -4 c67 -20 175 -43 238 -50 106 -11 97 4 97 -154 0 -77 -2 -140 -5 -140
-4 0 -19 7 -35 15 -21 11 -30 23 -30 40 0 15 -21 45 -62 88 -140 144 -185 170
-228 127 -27 -27 -30 -25 -23 14 3 18 0 43 -6 55 -14 25 -11 25 54 5z m-1173
-46 c7 -13 11 -30 10 -39 -2 -11 8 -21 28 -27 33 -12 37 -23 15 -42 -13 -10
-23 -10 -55 5 -22 10 -43 15 -47 12 -3 -4 3 -10 13 -14 19 -6 34 -22 34 -35 0
-3 -16 -15 -35 -27 -33 -19 -35 -19 -45 -2 -5 10 -7 21 -4 24 9 8 -36 78 -46
72 -11 -7 -35 24 -26 33 4 4 26 19 49 34 53 34 92 36 109 6z m-167 -5 c-16
-39 -16 -62 1 -88 l18 -28 -32 17 c-51 26 -86 21 -122 -20 -21 -25 -30 -44
-28 -63 3 -23 0 -26 -27 -26 l-30 0 -2 90 c-3 106 3 114 81 116 28 1 65 5 81
9 54 14 68 12 60 -7z m1384 -44 c27 -20 27 -21 15 -67 -6 -26 -10 -49 -7 -52
6 -6 27 31 28 49 0 23 20 23 49 0 21 -17 24 -24 15 -35 -6 -8 -17 -14 -24 -14
-7 0 -28 -20 -46 -45 -38 -50 -38 -50 -63 -32 -16 12 -17 19 -8 63 6 27 9 51
6 53 -7 7 -32 -32 -28 -44 2 -5 0 -17 -6 -25 -8 -12 -14 -10 -39 14 -24 23
-28 33 -20 43 6 7 17 13 24 13 17 0 48 37 50 58 1 18 13 42 21 42 3 0 17 -9
33 -21z m-1397 -93 c28 -19 56 -32 63 -30 6 3 17 -1 23 -9 9 -11 5 -20 -18
-42 -24 -23 -32 -26 -45 -15 -8 7 -12 16 -9 21 6 11 1 11 -20 3 -9 -3 -16 -13
-16 -21 0 -8 4 -12 9 -9 5 3 15 -1 22 -10 10 -13 8 -19 -13 -41 -28 -27 -48
-24 -48 7 0 27 -31 90 -45 90 -6 0 -16 5 -23 12 -9 9 -3 19 26 44 20 18 38 33
40 34 1 0 26 -15 54 -34z m1570 -70 c23 -28 25 -36 14 -45 -8 -7 -18 -10 -22
-9 -15 5 -73 -44 -68 -57 3 -6 -2 -17 -10 -24 -12 -10 -20 -7 -45 21 -22 24
-27 36 -19 46 6 7 16 11 22 9 13 -5 71 41 71 57 1 14 14 36 23 36 4 0 19 -15
34 -34z m-1707 -56 c0 -8 -12 -21 -27 -28 -35 -16 -35 -32 -1 -56 30 -22 55
-13 58 22 2 28 10 36 30 29 38 -15 -3 -111 -51 -119 -30 -4 -114 57 -114 84 0
12 12 36 26 55 20 26 32 33 52 31 16 -2 27 -9 27 -18z m1780 -46 c19 -8 45
-55 45 -82 0 -29 -24 -46 -40 -27 -7 8 -10 21 -7 29 3 8 0 20 -8 26 -11 9 -21
8 -45 -6 -36 -22 -39 -41 -6 -53 24 -10 40 -34 29 -45 -17 -17 -54 -3 -79 29
-33 44 -27 73 23 108 39 27 60 32 88 21z m-1431 -1146 c4 -40 9 -81 12 -90 4
-13 0 -18 -15 -18 -12 0 -21 7 -21 15 0 8 -4 15 -10 15 -5 0 -10 -7 -10 -15 0
-9 -9 -15 -21 -15 -20 0 -21 4 -15 53 3 28 6 69 6 90 0 35 1 37 34 37 l33 0 7
-72z m76 -5 c0 -56 3 -74 11 -66 6 6 9 38 7 77 -3 58 -1 66 15 66 15 0 17 -10
17 -74 0 -93 -5 -106 -41 -106 -38 0 -49 24 -49 109 0 64 2 71 20 71 18 0 20
-7 20 -77z m160 57 c0 -11 -4 -20 -10 -20 -6 0 -10 -30 -10 -70 0 -63 -2 -70
-20 -70 -18 0 -20 7 -20 70 0 40 -4 70 -10 70 -5 0 -10 9 -10 20 0 17 7 20 40
20 33 0 40 -3 40 -20z m110 1 c13 -25 13 -102 0 -136 -8 -22 -15 -26 -42 -23
l-33 3 -3 74 c-2 41 -1 80 2 88 8 21 64 16 76 -6z m16 -239 c15 -10 16 -70 1
-79 -7 -4 -22 -8 -35 -8 -21 -1 -23 2 -16 40 6 35 18 55 34 55 3 0 10 -4 16
-8z m251 -39 c-3 -27 -7 -47 -11 -45 -3 1 -15 2 -26 2 -13 0 -20 7 -20 20 0
10 9 24 20 30 11 6 20 17 20 25 0 8 5 15 10 15 6 0 9 -19 7 -47z m-174 -13
c-3 -11 0 -20 6 -20 6 0 11 9 11 20 0 13 7 20 19 20 16 0 18 -5 12 -27 -7 -25
-12 -28 -50 -28 -26 0 -46 5 -48 13 -9 22 6 42 31 42 19 0 23 -4 19 -20z m107
5 c0 -8 -6 -15 -12 -15 -10 0 -10 -2 0 -9 11 -7 11 -9 -1 -14 -19 -7 -41 18
-33 38 7 20 46 20 46 0z m128 -10 c-4 -35 -23 -37 -24 -2 -1 17 4 27 13 27 9
0 13 -9 11 -25z m72 1 c0 -32 -16 -42 -29 -19 -6 10 -11 12 -11 6 0 -7 -4 -13
-10 -13 -5 0 -9 11 -8 25 2 20 8 25 30 25 23 0 28 -4 28 -24z m-92 -66 c2 -13
-10 -15 -63 -15 -37 0 -65 4 -64 10 0 6 14 9 30 7 17 -1 38 2 47 8 23 13 46 8
50 -10z m82 -20 c0 -11 5 -20 11 -20 6 0 9 -12 7 -27 -3 -27 -5 -28 -60 -29
-50 -1 -58 2 -58 18 0 24 -17 23 -25 -2 -9 -30 -25 -24 -25 9 0 29 1 30 55 30
51 0 55 -2 50 -20 -4 -11 -2 -19 4 -19 6 0 11 15 11 33 0 19 3 37 7 40 12 13
23 7 23 -13z m156 -27 c-4 -43 -7 -48 -30 -50 -21 -1 -26 3 -26 22 0 13 6 28
13 32 8 4 16 16 20 26 13 34 26 17 23 -30z m-620 -5 c-2 -23 -9 -44 -16 -46
-9 -3 -11 6 -8 32 5 46 -9 47 -18 1 -3 -19 -11 -35 -16 -35 -6 0 -8 14 -5 35
3 19 2 35 -3 35 -4 0 -11 -16 -14 -35 -10 -50 -27 -43 -24 10 l3 45 52 0 53 0
-4 -42z m69 -8 c-4 -14 -2 -20 8 -20 10 0 13 7 10 20 -4 15 0 20 16 20 15 0
20 -5 18 -20 -5 -29 -14 -35 -63 -36 -42 -1 -44 0 -44 27 0 26 4 29 31 29 26
0 29 -3 24 -20z m115 0 c0 -11 5 -20 10 -20 6 0 10 9 10 20 0 11 7 20 16 20
11 0 14 -8 12 -27 -3 -23 -8 -28 -35 -29 -27 -1 -33 2 -34 20 0 20 -1 20 -10
-2 -11 -30 -28 -20 -21 13 6 32 52 37 52 5z m87 0 c-3 -11 -1 -18 4 -14 5 3 9
12 9 20 0 8 5 14 10 14 6 0 10 -13 10 -29 0 -26 -3 -30 -27 -28 -16 1 -28 8
-27 15 3 37 5 42 15 42 6 0 9 -9 6 -20z m279 -7 c-2 -21 -9 -28 -25 -29 -13
-1 -25 5 -28 12 -9 24 5 44 31 44 21 0 24 -4 22 -27z m-49 -70 c2 -6 -13 -17
-34 -23 -21 -7 -42 -16 -48 -20 -5 -4 -41 -17 -78 -28 -55 -17 -77 -20 -115
-12 -52 10 -135 38 -197 66 l-40 19 65 5 c130 10 443 6 447 -7z"/>
<path d="M1165 2032 c-74 -16 -215 -167 -215 -230 0 -28 231 -269 268 -279 16
-4 33 2 54 17 l30 22 34 -33 c19 -18 34 -38 34 -44 0 -5 -12 -23 -26 -38 -20
-21 -32 -27 -48 -22 -71 23 -71 23 -176 -82 -61 -61 -100 -108 -100 -120 0
-41 87 -173 114 -173 5 0 27 -12 48 -26 25 -18 45 -24 61 -20 24 6 176 150
204 193 14 21 14 29 3 63 -12 36 -11 42 5 60 10 11 20 18 23 15 3 -2 10 2 16
11 10 13 15 11 41 -16 27 -28 28 -32 16 -65 -9 -26 -9 -40 0 -57 16 -33 159
-177 192 -194 26 -14 31 -13 91 21 70 39 79 48 105 97 9 18 23 43 31 55 13 20
13 27 -4 58 -26 47 -168 183 -201 191 -15 4 -37 1 -51 -6 -22 -12 -27 -11 -54
15 -17 16 -30 34 -30 40 0 6 16 26 35 45 l35 34 31 -23 c19 -14 39 -21 52 -17
36 9 267 251 267 279 0 78 -197 257 -249 227 -9 -5 -71 -63 -138 -129 -130
-127 -139 -143 -103 -188 l20 -26 -33 -37 c-29 -35 -57 -51 -57 -32 0 4 -14
16 -30 27 -33 22 -37 40 -15 69 33 43 21 64 -107 188 -134 130 -144 137 -173
130z m38 -40 c15 -17 10 -24 -87 -121 -73 -73 -109 -102 -120 -98 -48 19 28
128 148 214 38 27 39 27 59 5z m660 -12 c62 -44 80 -61 120 -114 40 -51 47
-83 21 -93 -11 -4 -47 25 -120 98 -97 97 -102 104 -87 121 20 23 17 23 66 -12z
m-616 -36 c2 -5 -44 -56 -102 -114 -81 -81 -107 -102 -117 -92 -9 9 12 35 93
116 98 99 118 113 126 90z m632 -89 c82 -83 102 -108 93 -117 -10 -10 -35 10
-119 94 -61 61 -103 110 -99 117 4 6 10 11 14 11 4 0 54 -48 111 -105z m-693
-52 c-57 -56 -109 -103 -115 -103 -27 0 -4 32 91 127 80 81 105 100 115 91 11
-9 -7 -32 -91 -115z m754 -90 c0 -28 -26 -9 -126 90 -80 80 -101 106 -92 115
10 10 35 -11 115 -90 57 -57 103 -108 103 -115z m-565 107 c67 -68 68 -70 51
-89 -13 -14 -26 -18 -46 -15 -60 13 -128 -56 -115 -116 5 -22 1 -31 -16 -43
-21 -15 -24 -13 -91 55 l-70 71 104 104 c56 56 105 103 108 103 3 0 37 -31 75
-70z m433 -33 l104 -104 -70 -71 -69 -71 -21 22 c-14 14 -19 30 -16 44 13 50
-59 121 -113 110 -14 -3 -33 3 -46 14 l-22 18 70 70 c38 39 72 71 75 71 3 0
52 -47 108 -103z m-389 -151 c56 -57 63 -67 51 -81 -12 -14 -20 -9 -76 46 -35
35 -67 60 -71 56 -4 -4 21 -36 56 -71 55 -55 60 -64 46 -76 -8 -7 -16 -11 -18
-9 -1 3 -31 34 -66 71 l-64 67 31 30 c17 17 34 31 39 31 5 0 37 -29 72 -64z
m273 33 l31 -30 -167 -169 c-135 -135 -167 -173 -164 -191 2 -16 10 -24 23
-24 37 0 16 -35 -81 -131 -90 -90 -129 -113 -129 -75 0 8 -18 20 -39 27 -53
19 -64 30 -72 71 -4 23 -13 37 -25 40 -35 10 -19 38 74 130 89 89 135 118 129
81 -1 -10 6 -19 19 -23 18 -6 48 19 188 159 91 91 170 166 174 166 5 0 22 -14
39 -31z m-61 -245 c18 -20 42 -40 51 -45 22 -12 49 -1 46 20 -6 36 40 6 130
-82 93 -93 108 -120 72 -130 -13 -3 -20 -14 -20 -30 0 -36 -31 -69 -76 -82
-22 -6 -39 -17 -39 -25 0 -36 -37 -14 -127 76 -94 92 -122 139 -80 132 12 -2
18 5 20 23 2 20 -8 35 -43 68 -38 35 -44 45 -34 57 10 13 19 8 59 -31 26 -26
50 -43 53 -38 4 6 -14 29 -38 53 -34 34 -42 47 -33 57 15 19 20 17 59 -23z"/>
<path d="M1223 1744 c-3 -8 2 -23 11 -32 15 -15 17 -15 32 0 21 21 11 48 -16
48 -11 0 -23 -7 -27 -16z"/>
<path d="M1723 1744 c-3 -8 2 -23 11 -32 15 -15 17 -15 32 0 21 21 11 48 -16
48 -11 0 -23 -7 -27 -16z"/>
<path d="M1507 1502 c-87 -87 -154 -161 -150 -165 7 -8 323 301 323 315 0 20
-26 -3 -173 -150z"/>
<path d="M1204 1288 c-22 -10 -44 -47 -44 -72 0 -30 41 -66 75 -66 75 0 107
79 51 127 -29 25 -49 28 -82 11z m60 -44 c22 -21 20 -29 -8 -47 -22 -15 -25
-15 -40 2 -9 10 -16 20 -16 24 0 9 30 37 40 37 5 0 16 -7 24 -16z"/>
<path d="M1714 1277 c-56 -48 -24 -127 51 -127 34 0 75 36 75 66 0 26 -23 62
-47 73 -35 16 -49 14 -79 -12z m80 -40 c9 -15 7 -22 -13 -38 -24 -20 -24 -20
-45 0 -19 20 -19 21 -1 41 22 24 43 23 59 -3z"/>
<path d="M703 1653 c-47 -42 -56 -102 -21 -140 22 -23 22 -24 4 -54 -28 -48
-30 -85 -6 -109 19 -19 30 -21 93 -16 94 6 85 6 140 0 35 -5 54 -2 73 11 41
27 50 61 44 174 -5 97 -6 102 -34 126 -33 28 -86 33 -125 11 -21 -11 -30 -11
-57 0 -45 19 -87 18 -111 -3z m98 -24 c49 -26 43 -111 -11 -173 -17 -18 -30
-37 -30 -41 0 -3 17 -5 38 -3 34 3 37 1 40 -24 l3 -28 -77 0 -76 0 6 30 c3 17
24 57 47 89 27 38 40 66 37 82 -4 31 -22 27 -26 -6 -3 -20 -9 -25 -33 -25 -25
0 -29 4 -29 29 0 61 59 98 111 70z m179 -9 c17 -17 20 -33 20 -120 0 -115 -13
-140 -73 -140 -59 0 -72 26 -72 140 0 82 3 101 19 119 25 27 79 28 106 1z"/>
<path d="M914 1577 c-10 -27 1 -160 14 -165 9 -3 12 19 12 87 0 56 -4 91 -10
91 -6 0 -13 -6 -16 -13z"/>
<path d="M2012 1645 c-42 -35 -51 -88 -22 -128 22 -29 22 -30 4 -69 -21 -48
-21 -74 1 -99 15 -16 33 -18 153 -17 l137 1 27 29 c26 28 27 34 27 126 0 53
-5 109 -10 123 -20 51 -101 76 -147 44 -19 -14 -24 -14 -51 0 -44 22 -85 19
-119 -10z m115 -31 c21 -22 25 -32 20 -66 -3 -23 -18 -56 -34 -77 -50 -61 -50
-63 -7 -59 36 3 39 1 42 -24 l3 -28 -76 0 -77 0 7 28 c3 15 24 54 46 86 23 35
39 71 39 88 0 37 -24 33 -28 -5 -3 -23 -8 -27 -34 -27 -30 0 -30 1 -25 38 12
69 76 94 124 46z m147 14 c31 -13 46 -70 27 -100 -9 -15 -9 -23 0 -34 17 -21
5 -105 -17 -121 -19 -14 -72 -17 -91 -5 -14 9 -33 56 -33 83 0 14 7 19 30 19
27 0 30 -3 30 -30 0 -20 5 -30 15 -30 11 0 15 11 15 35 0 22 -6 38 -15 41 -8
4 -15 17 -15 30 0 15 6 24 15 24 9 0 15 9 15 25 0 30 -20 33 -27 5 -3 -13 -14
-20 -29 -20 -20 0 -24 5 -24 29 0 50 51 74 104 49z"/>
<path d="M1442 950 c-18 -11 -35 -26 -38 -33 -9 -25 -10 -123 -1 -151 13 -37
67 -62 97 -44 15 10 27 10 49 1 17 -6 33 -8 36 -5 3 4 72 7 153 7 81 1 153 4
159 8 6 4 14 3 17 -2 4 -5 48 -9 100 -8 103 2 132 15 121 51 -7 23 -7 102 0
127 12 37 -72 78 -101 49 -6 -6 -23 -6 -47 2 -28 9 -43 8 -63 -1 -20 -9 -34
-9 -60 1 -25 9 -39 9 -59 0 -18 -8 -32 -9 -45 -2 -24 13 -66 13 -89 0 -12 -6
-29 -5 -50 3 -27 10 -37 9 -61 -5 -28 -16 -30 -16 -54 3 -29 23 -24 23 -64 -1z
m68 -39 c15 -29 12 -41 -10 -41 -11 0 -20 7 -20 16 0 8 -4 12 -10 9 -14 -9
-13 -102 2 -111 8 -5 9 3 5 29 -5 34 -4 37 19 37 22 0 24 -4 24 -49 l0 -49
-42 2 -43 1 -3 73 c-2 46 2 79 9 88 17 20 57 17 69 -5z m120 -18 c0 -21 3 -62
6 -90 6 -45 4 -53 -10 -53 -9 0 -16 7 -16 15 0 8 -7 15 -15 15 -8 0 -15 -7
-15 -15 0 -8 -8 -15 -18 -15 -16 0 -16 7 -8 90 l10 90 33 0 c31 0 33 -2 33
-37z m127 -55 c2 -82 1 -88 -17 -88 -17 0 -20 7 -22 43 l-1 42 -4 -42 c-3 -35
-8 -43 -24 -43 -17 0 -19 8 -19 91 l0 90 43 -3 42 -3 2 -87z m119 2 c8 -83 8
-90 -8 -90 -10 0 -18 7 -18 15 0 8 -7 15 -16 15 -10 0 -14 -6 -10 -15 4 -10
-1 -15 -16 -15 -20 0 -20 4 -14 61 3 34 6 75 6 90 0 26 3 29 33 29 l33 0 10
-90z m112 78 c15 -15 16 -48 1 -48 -7 0 -18 8 -25 18 -12 15 -13 9 -14 -45 0
-40 4 -63 11 -63 7 0 9 12 5 35 -6 31 -4 35 14 35 17 0 20 -6 20 -48 0 -49 0
-49 -35 -50 -25 -1 -38 4 -45 18 -13 24 -13 116 0 141 12 21 50 25 68 7z m122
-8 c0 -13 -7 -20 -20 -20 -11 0 -20 -7 -20 -15 0 -8 9 -15 20 -15 14 0 20 -7
20 -21 0 -16 -4 -19 -20 -14 -17 5 -20 2 -20 -20 0 -22 3 -25 20 -20 16 5 20
2 20 -14 0 -18 -6 -21 -37 -21 l-38 0 0 90 0 90 38 0 c30 0 37 -4 37 -20z"/>
<path d="M877 2288 c-10 -8 -13 -18 -9 -25 6 -10 12 -10 28 1 13 10 16 18 8
25 -7 8 -15 7 -27 -1z"/>
<path d="M1270 840 c0 -33 4 -60 10 -60 6 0 10 27 10 60 0 33 -4 60 -10 60 -6
0 -10 -27 -10 -60z"/>
</g>
</svg>
