<?xml version="1.0" encoding="utf-8"?>
<!-- Svg Vector Icons : http://www.onlinewebfonts.com/icon -->
<!DOCTYPE svg PUBLIC "-//W3C//DTD SVG 1.1//EN" "http://www.w3.org/Graphics/SVG/1.1/DTD/svg11.dtd">
<svg version="1.1" xmlns="http://www.w3.org/2000/svg" xmlns:xlink="http://www.w3.org/1999/xlink" x="0px" y="0px" viewBox="0 0 1000 1000" enable-background="new 0 0 1000 1000" xml:space="preserve">
<metadata> Svg Vector Icons : http://www.onlinewebfonts.com/icon </metadata>
<g><path d="M500,9.8c270.6,0,490,219.5,490,490.2c0,270.7-219.4,490.2-490,490.2C229.4,990.2,10,770.7,10,500C10,229.3,229.4,9.8,500,9.8L500,9.8z M773.2,696.5c-15.8-28.2-18.9-74.6-18.9-74.6l-0.2-234.1c2.1-72.2,20.7-73.7,20.7-73.7c43.5-30.3,31-94.7,31-94.7c-26.3-49-59.7-61.9-59.7-61.9l14.5,72.8L720.9,255l-33.3-2.8c-14.7-2.3-16.2-17.2-16.2-17.2l-15.1-52.5c-39.9,34.1-21.2,94.9-21.2,94.9c10,26.8,37.4,41.4,47.3,65.4c7.6,18.5,5,40.9,5,40.9s0.5,189.6,1.6,213.7c1.1,24.1-0.7,85.3-12.2,97.9c-11.5,12.7-23.6,47.5-15.1,70.1c8.6,22.5,49.9,70.1,99.1,36.3C810,768.2,789,724.8,773.2,696.5L773.2,696.5z M758,768.8L758,768.8l-14.5,12.7l-20,3.9l-19.6-6.9L690.4,764l-3.6-22.4l6.2-18.9l14.5-10.7l20-5.8l19.5,8.6l13.8,14.7l3.4,20.7L758,768.8z M626.4,421.1l-61.2-122.6H197.7l-54.8,109.8l-6.5,12.7c-16.9,0-30.6,13.7-30.6,30.6c0,16.9,13.7,30.6,30.6,30.6h0.4l1,158.4c0,14.1,11.4,25.6,25.5,25.6h34.4v45.8c0,8.5,7,15.4,15.4,15.4l91.8-0.1c8.6,0,15.3-6.9,15.3-15.3v-46.6l122.5,0.6v46.6c0,8.5,7,15.3,15.4,15.3l91.7-0.6c8.5,0,15.3-6.9,15.3-15.3v-45.7h34.4c14.1,0,25.6-11.5,25.6-25.6l1-158.5h0.1c16.9,0,30.6-13.7,30.6-30.6C656.9,434.8,643.3,421.2,626.4,421.1L626.4,421.1z M258.9,359.8h245l61.3,61.3H197.7L258.9,359.8z M287,666.2h-61.3l0.1-17.4l61.1-0.2V666.2z M537.2,666.2H476v-16.8h61.2V666.2z M565.2,604.9H197.7v-52.6h36.3c3.9,10,13.7,17.2,25,17.2c14.9,0,26.9-12,26.9-26.8c0-14.7-12-26.8-26.9-26.8c-11.3,0-21.1,7.1-25,17.2h-36.3v-50.6h367.5V533h-36c-3.9-10-13.6-17.2-25-17.2c-14.8,0-26.8,12.1-26.8,26.8c0,14.8,12,26.8,26.8,26.8c11.4,0,21.2-7.1,25-17.2h36V604.9z"/></g>
</svg>